<svg id="Capa_1" data-name="Capa 1" xmlns="http://www.w3.org/2000/svg" viewBox="0 0 783.88 776.26"><defs><style>.cls-1{fill:#fffbd4;}</style></defs><path class="cls-1" d="M755.83,1.91c-94.6,51.4-203.1,57.7-309.4,69.9-51.9,6-103.3,13.4-152.2,28.2-10.6,3.2-21.2,6.8-31.6,10.8a372.42,372.42,0,0,0-88.8,48c-26.4,19.4-48,42.4-66.2,67.7-29,40.4-49.2,86.9-65.8,135.2A771.06,771.06,0,0,0,.33,635.31c1.1,37.6,1.7,76.7,11,113.4,2.1,8.1,4.1,18.4,10.4,24.4,8.2,7.9,22.9-.2,19.6-11.7-23.8-81.1-9-175.9,23.9-253.4,37.8-89.1,110.8-142.1,200-174.4,23.7-8.6,47.9-16.1,72.5-23.2a3.89,3.89,0,0,1,1.5-.2c4.9,0,7,7.2,1.9,9.5-29,13.1-57.8,26.3-85.2,40.6-134.2,70-192.8,233-142.5,233,4.1,0,8.9-1.1,14.4-3.4,77.6-32.1,169.8-32.4,255.1-48.2,30-5.5,59.2-13,86.6-24.4,108.8-45.4,186.6-134.2,232.9-241,34.5-79.7,47.9-173.8,74-256.6,3.4-10.6-4.1-19.7-13.3-19.7A13.76,13.76,0,0,0,755.83,1.91Z"/></svg>