<svg width="32" height="32" fill="none" xmlns="http://www.w3.org/2000/svg"><path d="M12.604 20.684H9.742v-8.68h2.862v8.68zm-1.432-9.863c-.915 0-1.658-.714-1.658-1.576 0-.862.743-1.561 1.658-1.561.914 0 1.657.7 1.657 1.561 0 .862-.743 1.576-1.657 1.576zm12.143 9.863H20.46v-4.225c0-1.007-.022-2.298-1.488-2.298-1.488 0-1.716 1.094-1.716 2.225v4.298h-2.859v-8.68h2.745v1.184h.04c.382-.681 1.315-1.401 2.708-1.401 2.896 0 3.429 1.796 3.429 4.13v4.767h-.003z" fill="#000"/><path d="M30.207 16.184c0-8.022-6.408-14.5-14.283-14.5-7.876 0-14.284 6.478-14.284 14.5 0 8.021 6.408 14.5 14.284 14.5 7.875 0 14.283-6.479 14.283-14.5z" stroke="#000" stroke-width="2"/></svg>