<svg width="110" height="48" fill="none" xmlns="http://www.w3.org/2000/svg">
  <path d="M7.307 31.595c-.792 0-1.407.253-1.847.758-.432.505-.704 1.19-.815 2.054h5.312c-.056-.92-.331-1.618-.827-2.09-.488-.481-1.096-.722-1.823-.722zm0-2.873c1.087 0 2.067.208 2.938.624.872.415 1.591 1.072 2.159 1.968.512.79.843 1.708.995 2.75.088.612.124 1.492.108 2.641H4.561c.048 1.337.46 2.274 1.235 2.812.472.334 1.04.502 1.703.502.703 0 1.275-.204 1.715-.612.24-.22.452-.525.635-.917h3.49c-.088.79-.491 1.594-1.211 2.409-1.12 1.296-2.686 1.944-4.701 1.944-1.663 0-3.13-.547-4.401-1.639-1.272-1.092-1.907-2.868-1.907-5.33 0-2.306.571-4.075 1.715-5.306 1.15-1.23 2.642-1.846 4.473-1.846zM13.496 31.68V29.2h1.823v-3.716h3.382v3.716h2.123v2.482H18.7v7.042c0 .546.068.888.204 1.026.136.13.552.196 1.247.196h.324l.348-.024v2.604l-1.62.06c-1.614.058-2.718-.227-3.31-.855-.383-.4-.575-1.015-.575-1.846v-8.203h-1.823zM29.244 28.735c.807 0 1.539.142 2.194.427a3.853 3.853 0 011.631 1.309c.36.497.58 1.01.66 1.54.08.521.12 1.377.12 2.567v7.824h-3.49v-8.105c0-.717-.12-1.296-.36-1.736-.312-.62-.903-.93-1.775-.93-.903 0-1.59.31-2.063.93-.463.611-.695 1.487-.695 2.629v7.212H22.06V24.443h3.406v6.37c.496-.774 1.067-1.312 1.715-1.614a4.772 4.772 0 012.063-.465zM39.582 27.488h-3.465v-3.216h3.465v3.216zm-3.465 1.589h3.465v13.325h-3.465V29.077zM47.463 39.835c1.175 0 2.01-.513 2.506-1.54.32-.677.48-1.532.48-2.568 0-.815-.136-1.544-.408-2.188-.488-1.157-1.343-1.736-2.566-1.736-.864 0-1.56.338-2.087 1.015-.52.676-.78 1.703-.78 3.08 0 .921.12 1.675.36 2.262.448 1.117 1.28 1.675 2.495 1.675zm-.864-11.1c1.088 0 1.967.273 2.639.819.391.31.791.819 1.199 1.528v-1.98h3.298v18.582h-3.382v-6.932c-.256.538-.696 1.019-1.32 1.443-.615.415-1.459.623-2.53.623-1.51 0-2.798-.615-3.861-1.846-1.064-1.23-1.596-2.873-1.596-4.927 0-2.217.532-3.99 1.596-5.318 1.07-1.328 2.39-1.992 3.957-1.992zM59.36 29.077v8.032c0 .758.088 1.328.264 1.711.312.677.924 1.015 1.835 1.015 1.167 0 1.967-.48 2.399-1.443.224-.521.336-1.21.336-2.066v-7.25h3.465v13.326h-3.322V40.52a6.46 6.46 0 00-.24.366 2.44 2.44 0 01-.455.538c-.536.49-1.056.824-1.56 1.003-.495.18-1.079.269-1.75.269-1.935 0-3.238-.71-3.91-2.127-.376-.783-.563-1.936-.563-3.46v-8.032h3.501zM75.144 31.595c-.792 0-1.407.253-1.847.758-.432.505-.704 1.19-.816 2.054h5.313c-.056-.92-.331-1.618-.827-2.09-.488-.481-1.096-.722-1.823-.722zm0-2.873c1.087 0 2.067.208 2.938.624.872.415 1.591 1.072 2.159 1.968.511.79.843 1.708.995 2.75.088.612.124 1.492.108 2.641h-8.947c.048 1.337.46 2.274 1.236 2.812.472.334 1.04.502 1.703.502.703 0 1.275-.204 1.715-.612.24-.22.451-.525.635-.917h3.49c-.088.79-.492 1.594-1.211 2.409-1.12 1.296-2.686 1.944-4.701 1.944-1.663 0-3.13-.547-4.402-1.639-1.27-1.092-1.906-2.868-1.906-5.33 0-2.306.571-4.075 1.715-5.306 1.15-1.23 2.642-1.846 4.473-1.846zM85.339 38.148c.072.62.228 1.06.467 1.32.424.465 1.208.697 2.351.697.672 0 1.203-.102 1.595-.305.4-.204.6-.51.6-.917 0-.392-.16-.689-.48-.893-.32-.204-1.507-.554-3.562-1.051-1.479-.375-2.522-.844-3.13-1.406-.608-.554-.912-1.353-.912-2.396 0-1.231.472-2.286 1.416-3.167.951-.888 2.286-1.332 4.005-1.332 1.631 0 2.959.334 3.982 1.002 1.031.66 1.623 1.806 1.775 3.436h-3.418c-.048-.449-.172-.803-.372-1.064-.376-.473-1.015-.71-1.919-.71-.743 0-1.275.12-1.595.356-.312.236-.468.513-.468.83 0 .4.168.69.504.869.336.187 1.523.51 3.562.966 1.36.326 2.379.819 3.058 1.479.672.668 1.008 1.504 1.008 2.506 0 1.32-.484 2.4-1.451 3.24-.96.831-2.447 1.247-4.462 1.247-2.055 0-3.574-.44-4.557-1.32-.975-.889-1.463-2.018-1.463-3.387h3.466zM11.356 27.582H3.264v-3.19h8.092v3.19z" fill="#000"/>
  <path fill-rule="evenodd" clip-rule="evenodd" d="M9.934 19.355a3.77 3.77 0 01-.548.385c-.62.357-1.392.536-2.315.536-1.52 0-2.8-.625-3.842-1.874-1.034-1.257-1.551-2.868-1.551-4.83 0-2.264.509-4.045 1.527-5.343C4.231 6.931 5.599 6.282 7.31 6.282c.787 0 1.487.179 2.1.536a4.165 4.165 0 011.492 1.46V1.95h3.448v17.912h-3.305v-1.837c-.338.547-.708.99-1.111 1.33zm0 1.37l-.002.002c-.83.477-1.802.682-2.86.682-1.867 0-3.45-.788-4.69-2.273l-.004-.006C1.144 17.63.567 15.746.567 13.57c0-2.428.546-4.489 1.77-6.05l.003-.003C3.588 5.94 5.281 5.15 7.31 5.15c.89 0 1.725.189 2.48.59V.817h5.67v7.914c.276-.52.611-.998 1.01-1.428l.003-.003c1.377-1.472 3.162-2.188 5.255-2.188 1.223 0 2.362.235 3.394.727 1.071.511 1.94 1.314 2.608 2.367.145.225.278.458.398.698.289-.819.784-1.553 1.469-2.192 1.211-1.132 2.841-1.624 4.735-1.624 1.763 0 3.31.36 4.557 1.174 1.162.746 1.843 1.915 2.14 3.346V.684h5.67v9.032a8.344 8.344 0 011.087-2.082c1.19-1.665 2.903-2.484 4.99-2.484.762 0 1.48.118 2.127.388l.003.002c.162.068.319.145.47.229v-.303h5.527v13.715c0 1.805-.292 3.357-1.033 4.495-1.273 1.96-3.605 2.746-6.51 2.746-1.8 0-3.378-.36-4.655-1.168-1.365-.866-2.123-2.19-2.262-3.847l-.035-.412h-5.379v-2.803a5.262 5.262 0 01-1.335 1.742c-1.245 1.08-3.04 1.511-5.159 1.511-2.167 0-3.998-.46-5.267-1.596l-.007-.006a5.559 5.559 0 01-1.233-1.605 7.533 7.533 0 01-.673.88c-1.365 1.578-3.252 2.315-5.508 2.315-1.916 0-3.63-.638-5.095-1.897a5.773 5.773 0 01-1.291-1.597v3.056H9.934v-.27zm16.59-2.36c.376-.424.665-.846.867-1.264.054-.112.103-.224.144-.335.1-.268.166-.533.195-.798h-3.472c-.183.39-.394.694-.633.913-.437.405-1.006.608-1.706.608-.66 0-1.225-.166-1.695-.499-.53-.367-.889-.923-1.077-1.665a5.406 5.406 0 01-.152-1.133h8.902a32.6 32.6 0 00-.003-1.133 12.899 12.899 0 00-.104-1.496c-.151-1.038-.482-1.95-.99-2.737-.566-.893-1.282-1.546-2.149-1.96-.867-.413-1.841-.62-2.923-.62-1.822 0-3.305.612-4.45 1.837-1.138 1.225-1.707 2.986-1.707 5.281 0 2.45.632 4.219 1.897 5.306 1.265 1.087 2.725 1.63 4.38 1.63 2.004 0 3.563-.645 4.677-1.935zm-6.214-3.04c.139.361.332.585.54.729l.008.006c.256.181.591.297 1.06.297.478 0 .764-.132.96-.314l.004-.004c.102-.094.235-.264.374-.56l.072-.154H20.31zm8.235.303c0 .148.006.294.017.437a4.785 4.785 0 00.124.765c.208.837.646 1.56 1.315 2.168.978.876 2.49 1.314 4.534 1.314 2.005 0 3.485-.413 4.44-1.24.962-.836 1.443-1.911 1.443-3.225 0-.998-.334-1.83-1.002-2.495-.676-.657-1.69-1.148-3.043-1.472a105.47 105.47 0 01-.716-.163c-1.593-.369-2.535-.635-2.828-.799-.334-.178-.501-.466-.501-.863 0-.317.155-.593.465-.828.318-.235.847-.353 1.587-.353.9 0 1.535.235 1.91.706.198.26.322.612.37 1.059h3.4a6.79 6.79 0 00-.197-1.133c-.278-1.033-.801-1.795-1.569-2.287-1.018-.665-2.339-.997-3.962-.997-1.71 0-3.038.442-3.985 1.326-.939.876-1.408 1.926-1.408 3.151 0 1.039.302 1.834.907 2.385.604.56 1.642 1.027 3.114 1.4 2.045.495 3.226.843 3.544 1.046.318.203.477.5.477.889 0 .405-.199.71-.596.912-.39.203-.919.304-1.587.304-1.138 0-1.917-.23-2.339-.693-.239-.26-.394-.698-.465-1.314h-3.449zm.557-1.702a3.909 3.909 0 01-.09-.086l-.004.368-.004.287h.865a4.76 4.76 0 01-.767-.57zm4.022 1.763a2.1 2.1 0 00.084.345c.034.096.06.132.063.135l.002.001c.091.101.46.333 1.525.333.405 0 .69-.045.884-.103-.153-.054-.355-.12-.611-.195a46.465 46.465 0 00-1.947-.516zm2.81.601zm-2.2-6.235c.14.044.312.093.517.149.342.093.763.198 1.264.317a.702.702 0 00-.096-.236c-.08-.095-.321-.278-1.039-.278-.275 0-.487.02-.646.048zm5.451 1.716a5.5 5.5 0 01.997.761l.01.01c.346.345.626.726.837 1.14v-1.91h-1.844zm7.514 8.406h2.698a6.106 6.106 0 01-1.51-1.306l-.005-.006a7.058 7.058 0 01-1.183-2.072v3.384zm5.63.869a1.06 1.06 0 00.098.272l.005.004c.057.05.338.206 1.131.206.97 0 1.306-.306 1.467-.631l.004-.008c.037-.074.075-.176.11-.309-.722.328-1.533.476-2.404.476-.139 0-.276-.003-.412-.01zm2.98-1.862a3.414 3.414 0 00.52-.478c.208-.235.407-.519.598-.852v.852c0 .377-.012.722-.036 1.034-.057.736-.18 1.292-.37 1.668-.413.835-1.233 1.253-2.458 1.253-.867 0-1.483-.158-1.85-.475-.214-.178-.37-.47-.465-.876H47.55c.035.41.114.787.238 1.133.278.773.78 1.389 1.504 1.848 1.05.666 2.407.998 4.07.998 2.752 0 4.613-.746 5.584-2.239.565-.868.847-2.158.847-3.87V6.6h-3.305v1.91c-.311-.57-.682-1.03-1.111-1.382a3.63 3.63 0 00-.894-.54c-.485-.203-1.054-.305-1.706-.305-1.766 0-3.13.674-4.093 2.02-.963 1.339-1.444 2.994-1.444 4.965 0 2.044.497 3.667 1.492 4.867 1.002 1.193 2.338 1.789 4.009 1.789 1.046 0 1.902-.246 2.569-.74zm-47.26-2.961c.644 0 1.016-.22 1.286-.612.336-.49.551-1.189.551-2.186 0-1.458-.361-2.222-.811-2.615a1.467 1.467 0 00-1.002-.365c-.663 0-1.011.227-1.25.62-.328.541-.526 1.27-.526 2.25 0 1.085.208 1.827.52 2.323.245.37.593.585 1.233.585zm-2.16.037c-.469-.738-.703-1.72-.703-2.944 0-1.136.23-2.085.692-2.848.47-.77 1.201-1.156 2.195-1.156.653 0 1.226.211 1.719.633.803.698 1.205 1.858 1.205 3.48 0 1.16-.25 2.105-.752 2.835-.501.73-1.233 1.095-2.195 1.095-.963 0-1.683-.365-2.16-1.095zm16.887-5.616l-.007-.007c-.262-.258-.582-.399-1.041-.399-.534 0-.818.158-1.004.37-.042.05-.083.104-.122.163h2.29a1.1 1.1 0 00-.11-.12l-.006-.007zm1.37.127c.12.33.193.707.219 1.133h-5.286c.054-.42.147-.798.277-1.133.137-.35.315-.654.534-.911.438-.503 1.05-.755 1.838-.755.724 0 1.328.24 1.814.718.264.252.465.568.604.948zm30.668.242l-.005-.006c-.292-.372-.66-.562-1.222-.562-.418 0-.694.098-.887.232-.194.135-.39.365-.552.773-.17.436-.278 1.033-.278 1.83 0 .642.106 1.17.29 1.606l.005.01c.163.396.36.621.556.755.198.134.479.231.902.231.477 0 .854-.166 1.196-.544.278-.314.533-.953.533-2.168 0-1.119-.236-1.78-.538-2.157zm.825 5.09c-.549.608-1.22.912-2.016.912-1.193 0-2.02-.56-2.482-1.68-.255-.6-.382-1.285-.382-2.056 0-.892.12-1.643.358-2.251.454-1.144 1.277-1.716 2.47-1.716.875 0 1.571.329 2.088.986.525.657.788 1.614.788 2.872 0 1.338-.275 2.316-.824 2.932zm10.9-8.911c-.352.304-.722.76-1.111 1.366V6.623h-3.282v13.24h3.39v-7.18c0-.82.11-1.493.333-2.02.43-.998 1.221-1.497 2.375-1.497.939 0 1.575.34 1.909 1.022.183.373.274.909.274 1.607v8.067h3.485v-8.931c0-1.663-.43-2.852-1.289-3.566-.851-.722-1.949-1.083-3.293-1.083-1.074 0-1.961.268-2.661.803a2.925 2.925 0 00-.13.107zm0-1.367V5.49h-5.503v15.505h5.61v-8.312c0-.723.1-1.23.242-1.568.138-.319.305-.5.481-.611.183-.115.455-.205.875-.205.647 0 .821.203.915.396.071.144.158.474.158 1.1v9.2h5.706V17.85c.343.644.786 1.21 1.339 1.685 1.465 1.26 3.178 1.897 5.095 1.897 2.255 0 4.143-.737 5.507-2.314.328-.373.613-.76.844-1.16v3.036h5.646v-7.473c0-1.007.13-1.569.266-1.833.21-.405.648-.757 1.773-.757a7.733 7.733 0 01.617.03c.05 1.164.435 2.201 1.268 2.964.224.206.48.395.767.569h-2.434v1.133c0 1.675.613 3.11 1.826 4.215l.007.006c1.27 1.137 3.1 1.596 5.268 1.596 2.119 0 3.913-.431 5.158-1.51 1.216-1.056 1.835-2.45 1.835-4.088 0-1.287-.444-2.416-1.337-3.306l-.01-.009a5.474 5.474 0 00-.996-.76h2.096l-.116-1.24c-.172-1.85-.873-3.368-2.277-4.27-1.247-.813-2.794-1.173-4.556-1.173-1.894 0-3.524.492-4.736 1.624a6.38 6.38 0 00-.29.289v-1.77l-1.053-.057c-.099-.005-.19-.01-.265-.012a2.057 2.057 0 00-.247-.013c-1.017 0-1.951.23-2.743.742v-.426h-5.467v3.585a7.254 7.254 0 00-.469-.844c-.667-1.053-1.536-1.855-2.607-2.367-1.033-.492-2.171-.727-3.394-.727-2.093 0-3.878.716-5.255 2.188l-.003.003a6.785 6.785 0 00-1.228 1.876c-.231-1.086-.713-2.014-1.523-2.689-1.09-.923-2.455-1.341-4-1.341-1.026 0-1.97.21-2.79.675zm19.87 3c-.565-.892-1.28-1.545-2.148-1.959-.867-.413-1.842-.62-2.923-.62-1.822 0-3.306.612-4.451 1.837-1.138 1.225-1.707 2.986-1.707 5.281 0 2.45.633 4.219 1.898 5.306 1.264 1.087 2.724 1.63 4.379 1.63 2.005 0 3.564-.645 4.677-1.935.375-.424.664-.846.867-1.264a3.47 3.47 0 00.338-1.133h-3.472c-.183.39-.394.694-.632.913-.438.405-1.007.608-1.707.608-.66 0-1.225-.166-1.694-.499-.53-.367-.89-.923-1.078-1.665a5.406 5.406 0 01-.151-1.133h8.902a32.6 32.6 0 00-.003-1.133 12.88 12.88 0 00-.105-1.496c-.15-1.038-.481-1.95-.99-2.737zm-6.489 6.5c.138.361.332.585.539.729l.009.006c.255.181.59.297 1.06.297.478 0 .763-.132.96-.314l.004-.004c.102-.094.234-.264.373-.56l.073-.154H79.92zm12.244-8.726h-3.246v13.263h3.425v-6.34c0-1.062.131-1.85.394-2.36.454-.88 1.329-1.333 2.624-1.362a6.01 6.01 0 01.538.011 7.46 7.46 0 01.573.049V6.307a7.12 7.12 0 00-.299-.012.8.8 0 00-.155-.013 5.207 5.207 0 00-.657.042c-.723.094-1.331.352-1.825.774a2.98 2.98 0 00-.261.248c-.329.35-.7.871-1.11 1.565V6.599zm5.418 2.36a3.976 3.976 0 00-.288.9c-.052.27-.079.55-.079.84 0 .133.005.262.015.386.067.852.365 1.518.892 2 .605.56 1.643 1.026 3.115 1.399 2.044.495 3.225.843 3.543 1.046.319.203.478.5.478.889 0 .405-.199.71-.597.912-.39.203-.919.304-1.587.304-1.137 0-1.917-.23-2.339-.693-.238-.26-.393-.698-.465-1.314h-3.448c0 .398.04.775.124 1.132.2.866.644 1.612 1.331 2.238.979.876 2.49 1.314 4.535 1.314 2.004 0 3.484-.413 4.438-1.24.963-.836 1.444-1.911 1.444-3.225 0-.998-.334-1.83-1.002-2.495-.676-.657-1.69-1.148-3.043-1.472a119.161 119.161 0 01-.715-.163c-1.593-.369-2.536-.635-2.829-.799-.334-.178-.501-.466-.501-.863 0-.317.155-.593.465-.828.319-.235.848-.353 1.587-.353.899 0 1.536.235 1.91.706.199.26.322.612.37 1.059h3.4a6.719 6.719 0 00-.197-1.133c-.278-1.033-.801-1.795-1.569-2.287-1.018-.665-2.338-.997-3.961-.997-1.711 0-3.04.442-3.986 1.326-.459.429-.806.9-1.04 1.411zm6.114 1.326c-.08-.095-.322-.278-1.04-.278-.275 0-.487.02-.646.048.141.044.312.093.517.149.342.093.763.198 1.264.317a.712.712 0 00-.095-.236zm-2.296 5.404c.026.149.055.262.085.345.034.096.06.132.063.135l.001.001c.092.101.46.333 1.525.333.406 0 .691-.045.884-.103-.152-.054-.354-.12-.611-.195a46.45 46.45 0 00-1.947-.516zm-19.014-5.045l-.007-.007c-.262-.258-.583-.399-1.041-.399-.535 0-.818.158-1.004.37-.042.05-.083.104-.122.163h2.29a1.11 1.11 0 00-.11-.12l-.006-.007zm1.37.127c.12.33.193.707.219 1.133h-5.286c.054-.42.146-.798.277-1.133.136-.35.314-.654.534-.911.438-.503 1.05-.755 1.838-.755.723 0 1.328.24 1.813.718.264.252.466.568.605.948zM45.588 5.017v-3.2H42.14v3.2h3.449zM42.14 6.599v13.263h3.449V6.6H42.14z" fill="#000"/>
</svg>
