<svg width="31" height="32" fill="none" xmlns="http://www.w3.org/2000/svg"><path d="M22.963 13.608c0-3.253-2.103-4.207-2.103-4.207-1.06-.494-2.882-.702-4.774-.717h-.046c-1.892.015-3.713.223-4.773.717 0 0-2.104.954-2.104 4.207 0 .746-.014 1.637.01 2.581.076 3.183.576 6.319 3.478 7.098 1.338.358 2.488.434 3.413.382 1.679-.094 2.62-.607 2.62-.607l-.055-1.235s-1.199.383-2.546.337c-1.335-.046-2.743-.146-2.959-1.807-.02-.154-.03-.31-.03-.466 0 0 1.31.325 2.97.402 1.016.047 1.968-.06 2.935-.177 1.854-.224 3.468-1.382 3.671-2.44.319-1.666.293-4.067.293-4.067zm-2.481 4.194h-1.54v-3.825c0-.806-.335-1.215-1.004-1.215-.74 0-1.111.485-1.111 1.445V16.3h-1.531v-2.093c0-.96-.371-1.445-1.111-1.445-.67 0-1.004.409-1.004 1.215V17.8h-1.54v-3.94c0-.805.202-1.445.609-1.918.419-.474.967-.716 1.649-.716.788 0 1.385.306 1.78.92l.382.653.384-.652c.394-.615.991-.921 1.78-.921.68 0 1.229.242 1.648.716.406.473.608 1.113.608 1.919v3.94z" fill="#000"/><path d="M29.852 16.184c0-8.022-6.408-14.5-14.283-14.5-7.876 0-14.284 6.478-14.284 14.5 0 8.021 6.408 14.5 14.284 14.5 7.875 0 14.283-6.479 14.283-14.5z" stroke="#000" stroke-width="2"/></svg>