<svg width="31" height="32" fill="none" xmlns="http://www.w3.org/2000/svg"><path d="M29.905 16.184c0-8.022-6.408-14.5-14.283-14.5-7.875 0-14.284 6.478-14.284 14.5 0 8.021 6.409 14.5 14.284 14.5 7.875 0 14.283-6.479 14.283-14.5z" stroke="#000" stroke-width="2"/><path d="M23.935 16.729a1.358 1.358 0 00-1.721-.87l-1.699.574-1.134-3.416 1.7-.573c.714-.235 1.088-1.017.86-1.742a1.358 1.358 0 00-1.721-.87l-1.699.574-.587-1.784a1.358 1.358 0 00-1.722-.869c-.714.235-1.088 1.017-.86 1.742l.587 1.784-3.494 1.184-.588-1.784a1.358 1.358 0 00-1.72-.869c-.716.235-1.09 1.017-.861 1.742l.587 1.784-1.695.57c-.715.234-1.089 1.016-.86 1.741.187.55.714.911 1.257.934.254.038.449-.06 2.159-.638l1.133 3.416-1.698.573c-.711.235-1.09 1.021-.861 1.742.187.55.715.91 1.257.934.255.038.45-.061 2.16-.638l.587 1.784c.22.641.924 1.1 1.72.869.715-.235 1.09-1.017.861-1.742l-.587-1.784 3.502-1.188.587 1.784c.221.641.924 1.1 1.721.87.715-.236 1.09-1.018.861-1.743l-.587-1.784 1.698-.573c.711-.227 1.089-1.013.857-1.734zm-9.507 1.791l-1.134-3.423 3.498-1.188 1.134 3.423-3.498 1.188z" fill="#000"/></svg>