<svg width="32" height="32" fill="none" xmlns="http://www.w3.org/2000/svg"><path d="M22.883 13.173c.01.153.01.306.01.46 0 4.67-3.456 10.05-9.774 10.05a9.515 9.515 0 01-5.275-1.585c.276.033.542.044.83.044a6.76 6.76 0 004.264-1.51c-1.51-.033-2.776-1.05-3.212-2.45.213.033.426.055.65.055.308 0 .616-.044.903-.12-1.574-.329-2.755-1.75-2.755-3.468v-.043c.458.262.99.426 1.553.448a3.557 3.557 0 01-1.531-2.942c0-.656.17-1.258.468-1.783 1.69 2.144 4.233 3.544 7.083 3.697a4.094 4.094 0 01-.085-.81c0-1.946 1.532-3.532 3.436-3.532.989 0 1.882.426 2.51 1.116a6.654 6.654 0 002.18-.854 3.507 3.507 0 01-1.51 1.947 6.735 6.735 0 001.978-.547 7.504 7.504 0 01-1.723 1.827z" fill="#000"/><path d="M30.508 16.184c0-8.022-6.408-14.5-14.283-14.5-7.875 0-14.284 6.478-14.284 14.5 0 8.021 6.409 14.5 14.284 14.5 7.875 0 14.283-6.479 14.283-14.5z" stroke="#000" stroke-width="2"/></svg>